<?xml version="1.0" standalone="no"?><!DOCTYPE svg PUBLIC "-//W3C//DTD SVG 1.1//EN" "http://www.w3.org/Graphics/SVG/1.1/DTD/svg11.dtd"><svg t="1554180977222" class="icon" style="" viewBox="0 0 1024 1024" version="1.1" xmlns="http://www.w3.org/2000/svg" p-id="13621" xmlns:xlink="http://www.w3.org/1999/xlink" width="200" height="200"><defs><style type="text/css"></style></defs><path d="M890.7 317.3c18-0.6 35.7-8.7 49.8-22.8 28.5-28.5 25.5-77.9-6.7-110.1-15.3-15.3-34.9-24.5-55.2-26.1-4.4-0.3-8.7-0.3-12.9 0.1 0.4-4.2 0.4-8.5 0.1-12.9-1.6-20.3-10.8-39.9-26.1-55.2-32.2-32.2-81.6-35.2-110.1-6.7-26.5 26.5-29.9 62.1-10.3 91l-54.2 54.1c-34.7-29.3-68.5-53.9-99.1-72.1-59.6-35.4-100.6-42.6-121.8-21.4-0.7 0.7-1.3 1.4-1.8 2.1l-314.3 313C107.4 471 115 511.6 150.7 571c18.6 31 43.7 65.1 73.3 100-1.5 0.7-2.8 1.7-4.1 2.9l-45.2 45.2c-28.9-19.6-64.5-16.2-91 10.3-14.1 14.1-21 33.6-19.4 54.9 1.6 20.3 10.8 39.9 26.1 55.2 15.3 15.3 34.5 25 54 27.2 4.5 0.5 9 0.7 13.4 0.4-0.3 4.2-0.3 8.5 0.1 12.9 1.9 19.3 11.4 38.4 26.7 53.7 15.3 15.3 34.9 24.5 55.2 26.1 2.1 0.2 4.1 0.2 6.1 0.2 18.9 0 36-6.9 48.8-19.6 26.5-26.5 29.9-62.1 10.3-91l45.2-45.2c1-1 1.9-2.2 2.5-3.3 37.8 32.6 74.8 60.1 108.1 79.9 37.3 22.2 67.3 33.3 89.8 33.3 13.4 0 24.1-4 32-11.9L898.5 587c20.7-20.7 13.1-61.2-22.6-120.6-20-33.3-47.5-70.3-80.2-108l53.5-53.4c12.8 8.5 26.9 12.8 41.5 12.3z m-542.3-64.9z m-20.8 529.1L272.1 837c-6.3 6.3-6.3 16.4 0 22.6 21.4 21.4 14 44 0 58.1-7.4 7.4-18 11-29.8 10.1-12.7-1-25.2-7-35-16.8-20.1-20-23.5-46.9-7.9-62.4 3.1-3.1 4.7-7.2 4.7-11.3s-1.6-8.2-4.7-11.3c-6.3-6.3-16.4-6.3-22.7 0-9.1 9.1-20.6 9.9-28.6 9-12.4-1.4-24.9-7.9-35.1-18.1-9.9-9.9-15.9-22.3-16.8-35-0.9-11.8 2.7-22.4 10.1-29.8 14-14 36.7-21.4 58.1 0 6.3 6.3 16.4 6.3 22.7 0l55.5-55.5c0.7-0.7 1.3-1.4 1.8-2.2 14.3 15.9 29.4 31.8 45.2 47.6 13.2 13.2 26.5 25.9 39.8 38l-1.8 1.5z m282.9 59.8z m67.8-56.5z m170.3-302.1c33.4 55.6 30.9 78 27.4 81.5L737 702.8c-0.5 0.4-1.1 0.8-1.6 1.3-0.2 0.2-17.4 14.2-53.4-13.8-7-5.4-17-4.2-22.5 2.8-5.4 7-4.2 17 2.8 22.5 15 11.7 28.5 18.3 40.2 21.5l-31.7 31.6c-2.1-0.3-4.9-0.9-8.5-2-11.3-3.5-30.5-12.6-58-35.8-6.8-5.7-16.9-4.9-22.6 1.9-5.7 6.8-4.9 16.9 1.9 22.6 25.3 21.4 45.7 33 61.3 39.1L613.6 826l0.1-0.4h0.1c-0.4-0.1-37.5-8.6-90.1-53-6.8-5.7-16.9-4.9-22.6 1.9-5.7 6.8-4.9 16.9 1.9 22.6 36.9 31.1 67.3 46.5 85.6 53.8L560 879.4c-5.8 5.8-32.6 3.5-82.8-26.3-49.6-29.5-108.2-77-165.1-133.8-56.5-56.5-104.1-115.1-134-164.8-33.4-55.6-30.9-78-27.4-81.5l139.8-139.3c0.2-0.2 0.5-0.4 0.7-0.6 0.2-0.2 17.4-14.2 53.4 13.8 2.9 2.3 6.4 3.4 9.8 3.4 4.8 0 9.5-2.1 12.6-6.2 5.4-7 4.2-17-2.8-22.5-14.9-11.6-28.4-18.2-40.1-21.5l31.8-31.7c2.1 0.3 4.9 0.9 8.3 2 11.3 3.5 30.5 12.6 58 35.8 3 2.5 6.7 3.8 10.3 3.8 4.6 0 9.1-1.9 12.2-5.7 5.7-6.8 4.9-16.9-1.9-22.6-25.2-21.3-45.6-32.9-61.1-39.1l31.1-31c0.4 0.1 37.5 8.6 90 53 3 2.5 6.7 3.8 10.3 3.8 4.6 0 9.1-1.9 12.2-5.7 5.7-6.8 4.9-16.9-1.9-22.6-36.7-31-67.1-46.4-85.4-53.8l28.5-28.4 1-1c7.6-4.6 34.2-1.1 81.7 27.1 49.6 29.5 108.2 77 165.1 133.8 56.8 56.7 104.4 115.2 134.3 164.9zM837 271.9l-62.5 62.4c-12-13.1-24.5-26.1-37.4-39.1-15.9-15.9-32-31.1-48-45.5l62.9-62.9c6.3-6.3 6.3-16.4 0-22.6-21.4-21.4-14-44 0-58.1 16-16 45.1-13 64.8 6.7 19.7 19.7 22.7 48.8 6.7 64.8-3.1 3.1-4.7 7.2-4.7 11.3 0 4.1 1.6 8.2 4.7 11.3 6.3 6.3 16.4 6.3 22.7 0 7.4-7.4 18-11 29.8-10.1 12.7 1 25.2 7 35 16.8 19.7 19.7 22.7 48.8 6.7 64.8-8.3 8.3-18.3 13.1-28.2 13.4-10.4 0.3-20.8-4.3-29.9-13.4-3-3-7.1-4.7-11.3-4.7s-8.3 1.9-11.3 4.9z" p-id="13622" fill="#1296db"></path></svg>